ffmpeg started on 2016-12-08 at 22:20:00
Report written to "Output/x264/results/ffmpeg/sintelveryslow10000k.log"
Command line:
Tools/ffmpeg/ffmpeg -benchmark -y -i Input/y4m/sintel.y4m -c:v libx264 -preset veryslow -b:v 10000k -an Output/x264/encoded/sintelveryslow10000k.mkv
ffmpeg version N-82227-gdb23fde Copyright (c) 2000-2016 the FFmpeg developers
  built with gcc 5.4.0 (Ubuntu 5.4.0-6ubuntu1~16.04.2) 20160609
  configuration: --prefix=/home/jaroslav/ffmpeg_build --pkg-config-flags=--static --extra-cflags=-I/home/jaroslav/ffmpeg_build/include --extra-ldflags=-L/home/jaroslav/ffmpeg_build/lib --bindir=/home/jaroslav/bin --enable-gpl --enable-libass --enable-libfdk-aac --enable-libfreetype --enable-libmp3lame --enable-libopus --enable-libtheora --enable-libvorbis --enable-libvpx --enable-libx264 --enable-libx265 --enable-nvenc --enable-libmfx --enable-libxvid --enable-libgsm --enable-libopencore-amrnb --enable-version3 --enable-nonfree
  libavutil      55. 35.100 / 55. 35.100
  libavcodec     57. 66.101 / 57. 66.101
  libavformat    57. 57.100 / 57. 57.100
  libavdevice    57.  2.100 / 57.  2.100
  libavfilter     6. 66.100 /  6. 66.100
  libswscale      4.  3.100 /  4.  3.100
  libswresample   2.  4.100 /  2.  4.100
  libpostproc    54.  2.100 / 54.  2.100
Input #0, yuv4mpegpipe, from 'Input/y4m/sintel.y4m':
  Duration: 00:00:20.83, start: 0.000000, bitrate: 2057307 kb/s
    Stream #0:0: Video: rawvideo (I420 / 0x30323449), yuv420p(progressive), 4096x1744, SAR 1:1 DAR 256:109, 24 fps, 24 tbr, 24 tbn, 24 tbc
[libx264 @ 0x46621c0] using SAR=1/1
[libx264 @ 0x46621c0] DPB size (16 frames, 446464 mbs) > level limit (6 frames, 184320 mbs)
[libx264 @ 0x46621c0] using cpu capabilities: MMX2 SSE2Fast SSSE3 SSE4.2 AVX FMA3 AVX2 LZCNT BMI2
[libx264 @ 0x46621c0] profile High, level 5.2
[libx264 @ 0x46621c0] 264 - core 148 - H.264/MPEG-4 AVC codec - Copyleft 2003-2016 - http://www.videolan.org/x264.html - options: cabac=1 ref=16 deblock=1:0:0 analyse=0x3:0x133 me=umh subme=10 psy=1 psy_rd=1.00:0.00 mixed_ref=1 me_range=24 chroma_me=1 trellis=2 8x8dct=1 cqm=0 deadzone=21,11 fast_pskip=1 chroma_qp_offset=-2 threads=6 lookahead_threads=1 sliced_threads=0 nr=0 decimate=1 interlaced=0 bluray_compat=0 constrained_intra=0 bframes=8 b_pyramid=2 b_adapt=2 b_bias=0 direct=3 weightb=1 open_gop=0 weightp=2 keyint=250 keyint_min=24 scenecut=40 intra_refresh=0 rc_lookahead=60 rc=abr mbtree=1 bitrate=10000 ratetol=1.0 qcomp=0.60 qpmin=0 qpmax=69 qpstep=4 ip_ratio=1.40 aq=1:1.00
Output #0, matroska, to 'Output/x264/encoded/sintelveryslow10000k.mkv':
  Metadata:
    encoder         : Lavf57.57.100
    Stream #0:0: Video: h264 (libx264) (H264 / 0x34363248), yuv420p, 4096x1744 [SAR 1:1 DAR 256:109], q=-1--1, 10000 kb/s, 24 fps, 1k tbn, 24 tbc
    Metadata:
      encoder         : Lavc57.66.101 libx264
    Side data:
      cpb: bitrate max/min/avg: 0/0/10000000 buffer size: 0 vbv_delay: -1
Stream mapping:
  Stream #0:0 -> #0:0 (rawvideo (native) -> h264 (libx264))
Press [q] to stop, [?] for help
frame=   10 fps=0.0 q=0.0 size=       0kB time=00:00:00.00 bitrate=N/A speed=   0x    frame=   18 fps= 17 q=0.0 size=       0kB time=00:00:00.00 bitrate=N/A speed=   0x    frame=   26 fps= 17 q=0.0 size=       0kB time=00:00:00.00 bitrate=N/A speed=   0x    frame=   34 fps= 16 q=0.0 size=       0kB time=00:00:00.00 bitrate=N/A speed=   0x    frame=   42 fps= 16 q=0.0 size=       0kB time=00:00:00.00 bitrate=N/A speed=   0x    frame=   50 fps= 16 q=0.0 size=       0kB time=00:00:00.00 bitrate=N/A speed=   0x    frame=   58 fps= 16 q=0.0 size=       0kB time=00:00:00.00 bitrate=N/A speed=   0x    frame=   66 fps= 16 q=0.0 size=       0kB time=00:00:00.00 bitrate=N/A speed=   0x    frame=   72 fps=3.3 q=0.0 size=       0kB time=00:00:00.00 bitrate=N/A speed=   0x    frame=   76 fps=3.2 q=24.0 size=       1kB time=-00:00:00.08 bitrate=N/A speed=N/A    frame=   78 fps=3.1 q=33.0 size=       1kB time=00:00:00.00 bitrate=5888.0kbits/s speed=3.93e-05x    frame=   79 fps=3.0 q=29.0 size=       1kB time=00:00:00.04 bitrate= 136.9kbits/s speed=0.00165x    frame=   80 fps=3.0 q=41.0 size=       1kB time=00:00:00.08 bitrate=  70.1kbits/s speed=0.00312x    frame=   81 fps=2.9 q=36.0 size=       1kB time=00:00:00.12 bitrate=  46.7kbits/s speed=0.00448x    frame=   82 fps=2.8 q=38.0 size=       1kB time=00:00:00.16 bitrate=  35.0kbits/s speed=0.00565x    frame=   83 fps=2.7 q=42.0 size=       1kB time=00:00:00.20 bitrate=  28.2kbits/s speed=0.00681x    frame=   88 fps=2.7 q=42.0 size=       1kB time=00:00:00.41 bitrate=  14.1kbits/s speed=0.0129x    frame=   89 fps=2.7 q=41.0 size=       1kB time=00:00:00.45 bitrate=  12.8kbits/s speed=0.0137x    frame=   90 fps=2.6 q=41.0 size=       1kB time=00:00:00.50 bitrate=  11.8kbits/s speed=0.0144x    frame=   91 fps=2.6 q=41.0 size=       1kB time=00:00:00.54 bitrate=  10.8kbits/s speed=0.0154x    frame=   92 fps=2.6 q=41.0 size=       1kB time=00:00:00.58 bitrate=  10.1kbits/s speed=0.0162x    frame=   93 fps=2.4 q=41.0 size=       1kB time=00:00:00.62 bitrate=   9.4kbits/s speed=0.0164x    frame=   94 fps=2.4 q=41.0 size=       1kB time=00:00:00.66 bitrate=   8.8kbits/s speed=0.0172x    frame=   96 fps=2.4 q=41.0 size=       1kB time=00:00:00.75 bitrate=   7.8kbits/s speed=0.0184x    frame=   97 fps=2.3 q=41.0 size=       1kB time=00:00:00.79 bitrate=   7.4kbits/s speed=0.0188x    frame=   98 fps=2.3 q=41.0 size=       1kB time=00:00:00.83 bitrate=   7.1kbits/s speed=0.0192x    frame=   99 fps=2.2 q=41.0 size=       1kB time=00:00:00.87 bitrate=   6.7kbits/s speed=0.0198x    frame=  100 fps=2.2 q=41.0 size=       1kB time=00:00:00.91 bitrate=   6.4kbits/s speed=0.0203x    frame=  101 fps=2.1 q=41.0 size=       1kB time=00:00:00.95 bitrate=   6.1kbits/s speed=0.0202x    frame=  102 fps=2.1 q=40.0 size=       1kB time=00:00:01.00 bitrate=   5.9kbits/s speed=0.0208x    frame=  103 fps=2.1 q=40.0 size=       1kB time=00:00:01.04 bitrate=   5.6kbits/s speed=0.0215x    frame=  104 fps=2.1 q=40.0 size=       1kB time=00:00:01.08 bitrate=   5.4kbits/s speed=0.022x    frame=  105 fps=2.1 q=40.0 size=       1kB time=00:00:01.12 bitrate=   5.2kbits/s speed=0.0225x    frame=  106 fps=2.1 q=40.0 size=       1kB time=00:00:01.16 bitrate=   5.0kbits/s speed=0.0229x    frame=  107 fps=2.0 q=40.0 size=       1kB time=00:00:01.20 bitrate=   4.9kbits/s speed=0.0228x    frame=  108 fps=2.0 q=40.0 size=       1kB time=00:00:01.25 bitrate=   4.7kbits/s speed=0.0231x    frame=  109 fps=2.0 q=40.0 size=       1kB time=00:00:01.29 bitrate=   4.6kbits/s speed=0.0234x    frame=  110 fps=1.9 q=40.0 size=       1kB time=00:00:01.33 bitrate=   4.4kbits/s speed=0.0236x    frame=  111 fps=1.9 q=39.0 size=       1kB time=00:00:01.37 bitrate=   4.3kbits/s speed=0.0238x    frame=  112 fps=1.9 q=39.0 size=       1kB time=00:00:01.41 bitrate=   4.2kbits/s speed=0.0242x    frame=  113 fps=1.9 q=39.0 size=       1kB time=00:00:01.45 bitrate=   4.0kbits/s speed=0.0244x    frame=  114 fps=1.9 q=39.0 size=       1kB time=00:00:01.50 bitrate=   3.9kbits/s speed=0.0246x    frame=  115 fps=1.9 q=39.0 size=       1kB time=00:00:01.54 bitrate=   3.8kbits/s speed=0.025x    frame=  116 fps=1.8 q=39.0 size=       1kB time=00:00:01.58 bitrate=   3.7kbits/s speed=0.0252x    frame=  117 fps=1.8 q=39.0 size=       1kB time=00:00:01.62 bitrate=   3.6kbits/s speed=0.0256x    frame=  118 fps=1.8 q=39.0 size=       1kB time=00:00:01.66 bitrate=   3.5kbits/s speed=0.026x    frame=  119 fps=1.8 q=39.0 size=       1kB time=00:00:01.70 bitrate=   3.4kbits/s speed=0.0262x    frame=  120 fps=1.8 q=39.0 size=       1kB time=00:00:01.75 bitrate=   3.4kbits/s speed=0.0262x    frame=  121 fps=1.8 q=39.0 size=       1kB time=00:00:01.79 bitrate=   3.3kbits/s speed=0.0266x    frame=  122 fps=1.8 q=38.0 size=       1kB time=00:00:01.83 bitrate=   3.2kbits/s speed=0.0269x    frame=  123 fps=1.8 q=38.0 size=       1kB time=00:00:01.87 bitrate=   3.1kbits/s speed=0.0272x    frame=  124 fps=1.8 q=38.0 size=       1kB time=00:00:01.91 bitrate=   3.1kbits/s speed=0.0275x    frame=  126 fps=1.8 q=38.0 size=       1kB time=00:00:02.00 bitrate=   2.9kbits/s speed=0.0278x    frame=  127 fps=1.7 q=38.0 size=       1kB time=00:00:02.04 bitrate=   2.9kbits/s speed=0.028x    frame=  128 fps=1.7 q=38.0 size=       1kB time=00:00:02.08 bitrate=   2.8kbits/s speed=0.028x    frame=  129 fps=1.7 q=38.0 size=       1kB time=00:00:02.12 bitrate=   2.8kbits/s speed=0.028x    frame=  130 fps=1.7 q=38.0 size=       1kB time=00:00:02.16 bitrate=   2.7kbits/s speed=0.0281x    frame=  131 fps=1.7 q=38.0 size=       1kB time=00:00:02.20 bitrate=   2.7kbits/s speed=0.0282x    frame=  132 fps=1.7 q=38.0 size=       1kB time=00:00:02.25 bitrate=   2.6kbits/s speed=0.0283x    frame=  133 fps=1.7 q=38.0 size=       1kB time=00:00:02.29 bitrate=   2.6kbits/s speed=0.0285x    frame=  134 fps=1.6 q=38.0 size=       1kB time=00:00:02.33 bitrate=   2.5kbits/s speed=0.0287x    frame=  135 fps=1.6 q=38.0 size=       1kB time=00:00:02.37 bitrate=   2.5kbits/s speed=0.0286x    frame=  136 fps=1.6 q=38.0 size=       1kB time=00:00:02.41 bitrate=   2.4kbits/s speed=0.0284x    frame=  137 fps=1.6 q=38.0 size=       1kB time=00:00:02.45 bitrate=   2.4kbits/s speed=0.0286x    frame=  138 fps=1.6 q=38.0 size=       1kB time=00:00:02.50 bitrate=   2.4kbits/s speed=0.0288x    frame=  139 fps=1.6 q=38.0 size=       1kB time=00:00:02.54 bitrate=   2.3kbits/s speed=0.0289x    frame=  140 fps=1.6 q=38.0 size=       1kB time=00:00:02.58 bitrate=   2.3kbits/s speed=0.0291x    frame=  141 fps=1.6 q=38.0 size=       1kB time=00:00:02.62 bitrate=   2.2kbits/s speed=0.0293x    frame=  142 fps=1.5 q=38.0 size=       1kB time=00:00:02.66 bitrate=   2.2kbits/s speed=0.0285x    frame=  143 fps=1.5 q=38.0 size=       1kB time=00:00:02.70 bitrate=   2.2kbits/s speed=0.0288x    frame=  144 fps=1.5 q=37.0 size=       1kB time=00:00:02.75 bitrate=   2.1kbits/s speed=0.0289x    frame=  145 fps=1.5 q=37.0 size=       1kB time=00:00:02.79 bitrate=   2.1kbits/s speed=0.0291x    frame=  146 fps=1.5 q=37.0 size=       1kB time=00:00:02.83 bitrate=   2.1kbits/s speed=0.0293x    frame=  147 fps=1.5 q=37.0 size=       1kB time=00:00:02.87 bitrate=   2.0kbits/s speed=0.0295x    frame=  148 fps=1.5 q=37.0 size=       1kB time=00:00:02.91 bitrate=   2.0kbits/s speed=0.0291x    frame=  149 fps=1.5 q=37.0 size=       1kB time=00:00:02.95 bitrate=   2.0kbits/s speed=0.029x    frame=  150 fps=1.5 q=37.0 size=       1kB time=00:00:03.00 bitrate=   2.0kbits/s speed=0.0292x    frame=  151 fps=1.5 q=37.0 size=       1kB time=00:00:03.04 bitrate=   1.9kbits/s speed=0.0294x    frame=  152 fps=1.5 q=37.0 size=       1kB time=00:00:03.08 bitrate=   1.9kbits/s speed=0.0295x    frame=  153 fps=1.4 q=37.0 size=       1kB time=00:00:03.12 bitrate=   1.9kbits/s speed=0.0296x    frame=  154 fps=1.4 q=37.0 size=       1kB time=00:00:03.16 bitrate=   1.9kbits/s speed=0.0293x    frame=  155 fps=1.4 q=37.0 size=       1kB time=00:00:03.20 bitrate=   1.8kbits/s speed=0.0294x    frame=  156 fps=1.4 q=37.0 size=       1kB time=00:00:03.25 bitrate=   1.8kbits/s speed=0.0295x    frame=  157 fps=1.4 q=37.0 size=       1kB time=00:00:03.29 bitrate=   1.8kbits/s speed=0.0296x    frame=  158 fps=1.4 q=37.0 size=       1kB time=00:00:03.33 bitrate=   1.8kbits/s speed=0.0296x    frame=  159 fps=1.4 q=37.0 size=       1kB time=00:00:03.37 bitrate=   1.7kbits/s speed=0.0298x    frame=  160 fps=1.4 q=37.0 size=       1kB time=00:00:03.41 bitrate=   1.7kbits/s speed=0.0295x    frame=  161 fps=1.4 q=37.0 size=       1kB time=00:00:03.45 bitrate=   1.7kbits/s speed=0.0296x    frame=  162 fps=1.4 q=37.0 size=       1kB time=00:00:03.50 bitrate=   1.7kbits/s speed=0.0298x    frame=  163 fps=1.4 q=36.0 size=       1kB time=00:00:03.54 bitrate=   1.7kbits/s speed=0.0299x    frame=  164 fps=1.4 q=36.0 size=       1kB time=00:00:03.58 bitrate=   1.6kbits/s speed=0.0298x    frame=  165 fps=1.4 q=36.0 size=       1kB time=00:00:03.62 bitrate=   1.6kbits/s speed=0.0299x    frame=  166 fps=1.4 q=36.0 size=       1kB time=00:00:03.66 bitrate=   1.6kbits/s speed=0.03x    frame=  167 fps=1.4 q=36.0 size=       1kB time=00:00:03.70 bitrate=   1.6kbits/s speed=0.0301x    frame=  168 fps=1.3 q=36.0 size=       1kB time=00:00:03.75 bitrate=   1.6kbits/s speed=0.0301x    frame=  169 fps=1.3 q=36.0 size=       1kB time=00:00:03.79 bitrate=   1.6kbits/s speed=0.0302x    frame=  170 fps=1.3 q=36.0 size=       1kB time=00:00:03.83 bitrate=   1.5kbits/s speed=0.0304x    frame=  171 fps=1.3 q=36.0 size=       1kB time=00:00:03.87 bitrate=   1.5kbits/s speed=0.0304x    frame=  172 fps=1.3 q=36.0 size=    5150kB time=00:00:03.91 bitrate=10768.3kbits/s speed=0.0302x    frame=  173 fps=1.3 q=36.0 size=    5150kB time=00:00:03.95 bitrate=10656.8kbits/s speed=0.0304x    frame=  175 fps=1.3 q=36.0 size=    5150kB time=00:00:04.04 bitrate=10435.4kbits/s speed=0.0309x    frame=  176 fps=1.3 q=36.0 size=    5150kB time=00:00:04.08 bitrate=10330.6kbits/s speed=0.031x    frame=  177 fps=1.3 q=36.0 size=    5150kB time=00:00:04.12 bitrate=10225.5kbits/s speed=0.0311x    frame=  178 fps=1.3 q=36.0 size=    5150kB time=00:00:04.16 bitrate=10122.4kbits/s speed=0.0307x    frame=  179 fps=1.3 q=36.0 size=    5150kB time=00:00:04.20 bitrate=10023.8kbits/s speed=0.0308x    frame=  180 fps=1.3 q=36.0 size=    5150kB time=00:00:04.25 bitrate=9924.8kbits/s speed=0.0309x    frame=  181 fps=1.3 q=36.0 size=    5150kB time=00:00:04.29 bitrate=9827.7kbits/s speed=0.0311x    frame=  182 fps=1.3 q=36.0 size=    5150kB time=00:00:04.33 bitrate=9734.7kbits/s speed=0.0312x    frame=  183 fps=1.3 q=36.0 size=    5150kB time=00:00:04.37 bitrate=9641.3kbits/s speed=0.0314x    frame=  184 fps=1.3 q=36.0 size=    5150kB time=00:00:04.41 bitrate=9549.6kbits/s speed=0.0314x    frame=  185 fps=1.3 q=35.0 size=    5150kB time=00:00:04.45 bitrate=9461.8kbits/s speed=0.0315x    frame=  186 fps=1.3 q=35.0 size=    5150kB time=00:00:04.50 bitrate=9373.5kbits/s speed=0.0316x    frame=  187 fps=1.3 q=35.0 size=    5150kB time=00:00:04.54 bitrate=9286.9kbits/s speed=0.0316x    frame=  188 fps=1.3 q=35.0 size=    5150kB time=00:00:04.58 bitrate=9203.8kbits/s speed=0.0317x    frame=  189 fps=1.3 q=35.0 size=    5150kB time=00:00:04.62 bitrate=9120.2kbits/s speed=0.0317x    frame=  190 fps=1.3 q=35.0 size=    5150kB time=00:00:04.66 bitrate=9038.2kbits/s speed=0.0319x    frame=  192 fps=1.3 q=35.0 size=    5150kB time=00:00:04.75 bitrate=8880.3kbits/s speed=0.0315x    frame=  193 fps=1.3 q=35.0 size=    5150kB time=00:00:04.79 bitrate=8802.5kbits/s speed=0.0316x    frame=  195 fps=1.3 q=35.0 size=    5150kB time=00:00:04.87 bitrate=8652.6kbits/s speed=0.032x    frame=  196 fps=1.3 q=35.0 size=    5150kB time=00:00:04.91 bitrate=8578.7kbits/s speed=0.032x    frame=  197 fps=1.3 q=35.0 size=    5150kB time=00:00:04.95 bitrate=8507.8kbits/s speed=0.0321x    frame=  198 fps=1.3 q=35.0 size=    5150kB time=00:00:05.00 bitrate=8436.4kbits/s speed=0.0319x    frame=  199 fps=1.3 q=35.0 size=    5150kB time=00:00:05.04 bitrate=8366.1kbits/s speed=0.0319x    frame=  200 fps=1.3 q=35.0 size=    5150kB time=00:00:05.08 bitrate=8298.6kbits/s speed=0.0321x    frame=  201 fps=1.3 q=35.0 size=    5150kB time=00:00:05.12 bitrate=8230.6kbits/s speed=0.0321x    frame=  202 fps=1.3 q=35.0 size=    5150kB time=00:00:05.16 bitrate=8163.7kbits/s speed=0.0321x    frame=  203 fps=1.3 q=35.0 size=    5150kB time=00:00:05.20 bitrate=8099.5kbits/s speed=0.0322x    frame=  204 fps=1.3 q=35.0 size=    5150kB time=00:00:05.25 bitrate=8034.7kbits/s speed=0.0323x    frame=  205 fps=1.3 q=35.0 size=    5150kB time=00:00:05.29 bitrate=7970.9kbits/s speed=0.0323x    frame=  206 fps=1.3 q=35.0 size=    5150kB time=00:00:05.33 bitrate=7909.7kbits/s speed=0.0324x    frame=  207 fps=1.3 q=35.0 size=    5150kB time=00:00:05.37 bitrate=7847.9kbits/s speed=0.0325x    frame=  208 fps=1.2 q=35.0 size=    5150kB time=00:00:05.41 bitrate=7787.0kbits/s speed=0.0324x    frame=  209 fps=1.2 q=35.0 size=    5150kB time=00:00:05.45 bitrate=7728.6kbits/s speed=0.0325x    frame=  210 fps=1.2 q=35.0 size=    5150kB time=00:00:05.50 bitrate=7669.6kbits/s speed=0.0326x    frame=  211 fps=1.2 q=35.0 size=    5150kB time=00:00:05.54 bitrate=7611.4kbits/s speed=0.0327x    frame=  212 fps=1.2 q=35.0 size=    5150kB time=00:00:05.58 bitrate=7555.6kbits/s speed=0.0328x    frame=  213 fps=1.2 q=35.0 size=    5150kB time=00:00:05.62 bitrate=7499.1kbits/s speed=0.0329x    frame=  214 fps=1.2 q=35.0 size=    5150kB time=00:00:05.66 bitrate=7443.6kbits/s speed=0.0329x    frame=  215 fps=1.2 q=35.0 size=    5150kB time=00:00:05.70 bitrate=7390.1kbits/s speed=0.033x    frame=  216 fps=1.2 q=35.0 size=    5150kB time=00:00:05.75 bitrate=7336.2kbits/s speed=0.0331x    frame=  217 fps=1.2 q=35.0 size=    5150kB time=00:00:05.79 bitrate=7283.0kbits/s speed=0.0331x    frame=  218 fps=1.2 q=35.0 size=    5150kB time=00:00:05.83 bitrate=7231.8kbits/s speed=0.0332x    frame=  219 fps=1.2 q=35.0 size=    5150kB time=00:00:05.87 bitrate=7180.1kbits/s speed=0.0332x    frame=  220 fps=1.2 q=35.0 size=    5150kB time=00:00:05.91 bitrate=7129.1kbits/s speed=0.0333x    frame=  221 fps=1.2 q=35.0 size=    5150kB time=00:00:05.95 bitrate=7080.1kbits/s speed=0.0333x    frame=  222 fps=1.2 q=35.0 size=    5150kB time=00:00:06.00 bitrate=7030.5kbits/s speed=0.0334x    frame=  223 fps=1.2 q=35.0 size=    5150kB time=00:00:06.04 bitrate=6981.7kbits/s speed=0.0334x    frame=  224 fps=1.2 q=35.0 size=    5150kB time=00:00:06.08 bitrate=6934.6kbits/s speed=0.0335x    frame=  225 fps=1.2 q=35.0 size=    5150kB time=00:00:06.12 bitrate=6887.1kbits/s speed=0.0336x    frame=  226 fps=1.2 q=35.0 size=    5150kB time=00:00:06.16 bitrate=6840.2kbits/s speed=0.0336x    frame=  227 fps=1.2 q=35.0 size=    5150kB time=00:00:06.20 bitrate=6795.0kbits/s speed=0.0335x    frame=  229 fps=1.2 q=35.0 size=    5150kB time=00:00:06.29 bitrate=6704.3kbits/s speed=0.0337x    frame=  230 fps=1.2 q=35.0 size=    5150kB time=00:00:06.33 bitrate=6660.9kbits/s speed=0.0339x    frame=  233 fps=1.2 q=35.0 size=    5150kB time=00:00:06.45 bitrate=6532.0kbits/s speed=0.0336x    frame=  235 fps=1.2 q=35.0 size=    5150kB time=00:00:06.54 bitrate=6448.1kbits/s speed=0.0338x    frame=  236 fps=1.2 q=34.0 size=    5150kB time=00:00:06.58 bitrate=6408.0kbits/s speed=0.0339x    frame=  237 fps=1.2 q=34.0 size=    5150kB time=00:00:06.62 bitrate=6367.4kbits/s speed=0.0339x    frame=  238 fps=1.2 q=34.0 size=    5150kB time=00:00:06.66 bitrate=6327.3kbits/s speed=0.034x    frame=  239 fps=1.2 q=34.0 size=    5150kB time=00:00:06.70 bitrate=6288.6kbits/s speed=0.0339x    frame=  240 fps=1.2 q=34.0 size=    5150kB time=00:00:06.75 bitrate=6249.5kbits/s speed=0.034x    frame=  241 fps=1.2 q=34.0 size=    5150kB time=00:00:06.79 bitrate=6210.8kbits/s speed=0.0339x    frame=  242 fps=1.2 q=34.0 size=    5150kB time=00:00:06.83 bitrate=6173.6kbits/s speed=0.034x    frame=  243 fps=1.2 q=34.0 size=    5150kB time=00:00:06.87 bitrate=6135.9kbits/s speed=0.0341x    frame=  244 fps=1.2 q=34.0 size=    5150kB time=00:00:06.91 bitrate=6098.6kbits/s speed=0.0342x    frame=  245 fps=1.2 q=34.0 size=    5150kB time=00:00:06.95 bitrate=6062.7kbits/s speed=0.0343x    frame=  246 fps=1.2 q=34.0 size=    5150kB time=00:00:07.00 bitrate=6026.3kbits/s speed=0.0342x    frame=  247 fps=1.2 q=34.0 size=    5150kB time=00:00:07.04 bitrate=5990.4kbits/s speed=0.0342x    frame=  249 fps=1.2 q=34.0 size=    5150kB time=00:00:07.12 bitrate=5920.6kbits/s speed=0.0344x    frame=  250 fps=1.2 q=34.0 size=    5150kB time=00:00:07.16 bitrate=5885.9kbits/s speed=0.0344x    frame=  251 fps=1.2 q=34.0 size=    5150kB time=00:00:07.20 bitrate=5852.4kbits/s speed=0.0345x    frame=  252 fps=1.2 q=34.0 size=    5150kB time=00:00:07.25 bitrate=5818.5kbits/s speed=0.0345x    frame=  253 fps=1.2 q=34.0 size=    5150kB time=00:00:07.29 bitrate=5785.0kbits/s speed=0.0345x    frame=  254 fps=1.2 q=34.0 size=    5150kB time=00:00:07.33 bitrate=5752.7kbits/s speed=0.0345x    frame=  255 fps=1.2 q=34.0 size=    5150kB time=00:00:07.37 bitrate=5719.9kbits/s speed=0.0345x    frame=  256 fps=1.2 q=34.0 size=    5150kB time=00:00:07.41 bitrate=5687.5kbits/s speed=0.0345x    frame=  257 fps=1.2 q=34.0 size=    5150kB time=00:00:07.45 bitrate=5656.3kbits/s speed=0.0346x    frame=  258 fps=1.2 q=34.0 size=    5150kB time=00:00:07.50 bitrate=5624.6kbits/s speed=0.0347x    frame=  259 fps=1.2 q=34.0 size=    5150kB time=00:00:07.54 bitrate=5593.3kbits/s speed=0.0348x    frame=  260 fps=1.2 q=34.0 size=    5150kB time=00:00:07.58 bitrate=5563.1kbits/s speed=0.0344x    frame=  261 fps=1.2 q=34.0 size=    5150kB time=00:00:07.62 bitrate=5532.4kbits/s speed=0.0345x    frame=  262 fps=1.2 q=34.0 size=    5150kB time=00:00:07.66 bitrate=5502.1kbits/s speed=0.0345x    frame=  266 fps=1.2 q=34.0 size=    5150kB time=00:00:07.83 bitrate=5385.5kbits/s speed=0.0351x    frame=  267 fps=1.2 q=34.0 size=    5150kB time=00:00:07.87 bitrate=5356.8kbits/s speed=0.0347x    frame=  268 fps=1.2 q=34.0 size=    5150kB time=00:00:07.91 bitrate=5328.4kbits/s speed=0.0348x    frame=  270 fps=1.2 q=34.0 size=    5150kB time=00:00:08.00 bitrate=5273.1kbits/s speed=0.0351x    frame=  271 fps=1.2 q=34.0 size=    5150kB time=00:00:08.04 bitrate=5245.6kbits/s speed=0.0351x    frame=  273 fps=1.2 q=34.0 size=    5150kB time=00:00:08.12 bitrate=5192.0kbits/s speed=0.0351x    frame=  274 fps=1.2 q=34.0 size=    5150kB time=00:00:08.16 bitrate=5165.3kbits/s speed=0.0351x    frame=  275 fps=1.2 q=34.0 size=    5150kB time=00:00:08.20 bitrate=5139.5kbits/s speed=0.0351x    frame=  276 fps=1.2 q=34.0 size=    5150kB time=00:00:08.25 bitrate=5113.3kbits/s speed=0.0351x    frame=  277 fps=1.2 q=34.0 size=    5150kB time=00:00:08.29 bitrate=5087.4kbits/s speed=0.0351x    frame=  278 fps=1.2 q=34.0 size=    5150kB time=00:00:08.33 bitrate=5062.4kbits/s speed=0.0351x    frame=  280 fps=1.2 q=34.0 size=    5150kB time=00:00:08.41 bitrate=5011.9kbits/s speed=0.0353x    frame=  281 fps=1.2 q=34.0 size=    5150kB time=00:00:08.45 bitrate=4987.6kbits/s speed=0.0353x    frame=  282 fps=1.2 q=34.0 size=    5150kB time=00:00:08.50 bitrate=4963.0kbits/s speed=0.0354x    frame=  283 fps=1.2 q=33.0 size=    5150kB time=00:00:08.54 bitrate=4938.6kbits/s speed=0.0355x    frame=  284 fps=1.2 q=34.0 size=    5150kB time=00:00:08.58 bitrate=4915.0kbits/s speed=0.0352x    frame=  287 fps=1.2 q=33.0 size=    5150kB time=00:00:08.70 bitrate=4844.4kbits/s speed=0.0356x    frame=  289 fps=1.2 q=33.0 size=    5150kB time=00:00:08.79 bitrate=4798.2kbits/s speed=0.0356x    frame=  290 fps=1.2 q=33.0 size=    5150kB time=00:00:08.83 bitrate=4775.9kbits/s speed=0.0357x    frame=  291 fps=1.2 q=33.0 size=   10177kB time=00:00:08.87 bitrate=9392.9kbits/s speed=0.0358x    frame=  292 fps=1.2 q=33.0 size=   10177kB time=00:00:08.91 bitrate=9348.6kbits/s speed=0.0355x    frame=  293 fps=1.2 q=33.0 size=   10177kB time=00:00:08.95 bitrate=9305.9kbits/s speed=0.0356x    frame=  294 fps=1.2 q=33.0 size=   10177kB time=00:00:09.00 bitrate=9262.4kbits/s speed=0.0357x    frame=  296 fps=1.2 q=33.0 size=   10177kB time=00:00:09.08 bitrate=9177.8kbits/s speed=0.0359x    frame=  298 fps=1.2 q=33.0 size=   10177kB time=00:00:09.16 bitrate=9093.7kbits/s speed=0.0356x    frame=  299 fps=1.2 q=33.0 size=   10177kB time=00:00:09.20 bitrate=9053.2kbits/s speed=0.0357x    frame=  300 fps=1.2 q=33.0 size=   10177kB time=00:00:09.25 bitrate=9012.1kbits/s speed=0.0357x    frame=  303 fps=1.2 q=33.0 size=   10177kB time=00:00:09.37 bitrate=8892.0kbits/s speed=0.0361x    frame=  304 fps=1.2 q=33.0 size=   10177kB time=00:00:09.41 bitrate=8852.3kbits/s speed=0.0359x    frame=  305 fps=1.2 q=33.0 size=   10177kB time=00:00:09.45 bitrate=8813.9kbits/s speed=0.036x    frame=  306 fps=1.2 q=33.0 size=   10177kB time=00:00:09.50 bitrate=8775.0kbits/s speed=0.036x    frame=  309 fps=1.2 q=33.0 size=   10177kB time=00:00:09.62 bitrate=8661.0kbits/s speed=0.0361x    frame=  311 fps=1.2 q=33.0 size=   10177kB time=00:00:09.70 bitrate=8587.0kbits/s speed=0.0363x    frame=  312 fps=1.2 q=33.0 size=   10177kB time=00:00:09.75 bitrate=8550.0kbits/s speed=0.0362x    frame=  313 fps=1.2 q=33.0 size=   10177kB time=00:00:09.79 bitrate=8513.3kbits/s speed=0.0362x    frame=  314 fps=1.2 q=33.0 size=   10177kB time=00:00:09.83 bitrate=8477.8kbits/s speed=0.0363x    frame=  317 fps=1.2 q=33.0 size=   10177kB time=00:00:09.95 bitrate=8371.4kbits/s speed=0.0367x    frame=  318 fps=1.2 q=33.0 size=   10177kB time=00:00:10.00 bitrate=8336.3kbits/s speed=0.0366x    frame=  320 fps=1.2 q=33.0 size=   10177kB time=00:00:10.08 bitrate=8267.7kbits/s speed=0.0367x    frame=  321 fps=1.2 q=30.0 size=   10177kB time=00:00:10.12 bitrate=8233.4kbits/s speed=0.0366x    frame=  323 fps=1.2 q=33.0 size=   10177kB time=00:00:10.20 bitrate=8166.4kbits/s speed=0.0368x    frame=  324 fps=1.2 q=33.0 size=   10177kB time=00:00:10.25 bitrate=8133.0kbits/s speed=0.0368x    frame=  326 fps=1.2 q=33.0 size=   11558kB time=00:00:10.33 bitrate=9162.5kbits/s speed=0.037x    frame=  332 fps=1.2 q=33.0 size=   11558kB time=00:00:10.58 bitrate=8946.0kbits/s speed=0.0377x    frame=  335 fps=1.2 q=33.0 size=   11558kB time=00:00:10.70 bitrate=8841.6kbits/s speed=0.0381x    frame=  337 fps=1.2 q=33.0 size=   11558kB time=00:00:10.79 bitrate=8772.8kbits/s speed=0.0383x    frame=  338 fps=1.2 q=33.0 size=   11558kB time=00:00:10.83 bitrate=8739.6kbits/s speed=0.0384x    frame=  339 fps=1.2 q=33.0 size=   11558kB time=00:00:10.87 bitrate=8705.8kbits/s speed=0.0384x    frame=  340 fps=1.2 q=32.0 size=   11558kB time=00:00:10.91 bitrate=8672.4kbits/s speed=0.0385x    frame=  343 fps=1.2 q=32.0 size=   11558kB time=00:00:11.04 bitrate=8574.2kbits/s speed=0.0387x    frame=  345 fps=1.2 q=32.0 size=   11558kB time=00:00:11.12 bitrate=8510.2kbits/s speed=0.0389x    frame=  346 fps=1.2 q=32.0 size=   11558kB time=00:00:11.16 bitrate=8478.2kbits/s speed=0.0388x    frame=  348 fps=1.2 q=32.0 size=   11558kB time=00:00:11.25 bitrate=8415.7kbits/s speed=0.039x    frame=  349 fps=1.2 q=32.0 size=   11558kB time=00:00:11.29 bitrate=8384.4kbits/s speed=0.0389x    frame=  350 fps=1.2 q=32.0 size=   11558kB time=00:00:11.33 bitrate=8354.1kbits/s speed=0.0389x    frame=  353 fps=1.2 q=32.0 size=   11558kB time=00:00:11.45 bitrate=8262.9kbits/s speed=0.0391x    frame=  354 fps=1.2 q=32.0 size=   11558kB time=00:00:11.50 bitrate=8232.7kbits/s speed=0.0391x    frame=  356 fps=1.2 q=32.0 size=   11558kB time=00:00:11.58 bitrate=8173.8kbits/s speed=0.0393x    frame=  357 fps=1.2 q=32.0 size=   11558kB time=00:00:11.62 bitrate=8144.2kbits/s speed=0.0392x    frame=  358 fps=1.2 q=32.0 size=   11558kB time=00:00:11.66 bitrate=8114.9kbits/s speed=0.0393x    frame=  360 fps=1.2 q=32.0 size=   11558kB time=00:00:11.75 bitrate=8057.6kbits/s speed=0.0392x    frame=  361 fps=1.2 q=32.0 size=   11558kB time=00:00:11.79 bitrate=8028.9kbits/s speed=0.0393x    frame=  362 fps=1.2 q=32.0 size=   11558kB time=00:00:11.83 bitrate=8001.1kbits/s speed=0.0393x    frame=  364 fps=1.2 q=32.0 size=   11558kB time=00:00:11.91 bitrate=7944.7kbits/s speed=0.0394x    frame=  366 fps=1.2 q=32.0 size=   11558kB time=00:00:12.00 bitrate=7889.7kbits/s speed=0.0396x    frame=  368 fps=1.2 q=32.0 size=   11558kB time=00:00:12.08 bitrate=7835.6kbits/s speed=0.0396x    frame=  369 fps=1.2 q=32.0 size=   11558kB time=00:00:12.12 bitrate=7808.4kbits/s speed=0.0397x    frame=  372 fps=1.2 q=32.0 size=   11558kB time=00:00:12.25 bitrate=7728.7kbits/s speed=0.0398x    frame=  374 fps=1.2 q=32.0 size=   11558kB time=00:00:12.33 bitrate=7676.7kbits/s speed=0.04x    frame=  376 fps=1.2 q=31.0 size=   11558kB time=00:00:12.41 bitrate=7624.8kbits/s speed=0.04x    frame=  378 fps=1.2 q=32.0 size=   11558kB time=00:00:12.50 bitrate=7574.2kbits/s speed=0.0401x    frame=  382 fps=1.2 q=31.0 size=   11558kB time=00:00:12.66 bitrate=7474.3kbits/s speed=0.0403x    frame=  386 fps=1.2 q=31.0 size=   11558kB time=00:00:12.83 bitrate=7377.7kbits/s speed=0.0407x    frame=  388 fps=1.2 q=31.0 size=   11558kB time=00:00:12.91 bitrate=7329.7kbits/s speed=0.0406x    frame=  392 fps=1.2 q=31.0 size=   11558kB time=00:00:13.08 bitrate=7236.7kbits/s speed=0.041x    frame=  393 fps=1.2 q=31.0 size=   11558kB time=00:00:13.12 bitrate=7213.5kbits/s speed=0.041x    frame=  394 fps=1.2 q=31.0 size=   11558kB time=00:00:13.16 bitrate=7190.5kbits/s speed=0.0409x    frame=  399 fps=1.2 q=30.0 size=   11558kB time=00:00:13.37 bitrate=7078.7kbits/s speed=0.0413x    frame=  400 fps=1.2 q=31.0 size=   11558kB time=00:00:13.41 bitrate=7056.6kbits/s speed=0.0412x    frame=  403 fps=1.2 q=30.0 size=   11558kB time=00:00:13.54 bitrate=6991.4kbits/s speed=0.0415x    frame=  405 fps=1.2 q=30.0 size=   11558kB time=00:00:13.62 bitrate=6948.8kbits/s speed=0.0416x    frame=  406 fps=1.2 q=30.0 size=   11558kB time=00:00:13.66 bitrate=6927.5kbits/s speed=0.0417x    frame=  408 fps=1.2 q=30.0 size=   11558kB time=00:00:13.75 bitrate=6885.7kbits/s speed=0.0416x    frame=  410 fps=1.2 q=30.0 size=   11558kB time=00:00:13.83 bitrate=6844.4kbits/s speed=0.0418x    frame=  414 fps=1.2 q=30.0 size=   11558kB time=00:00:14.00 bitrate=6762.7kbits/s speed=0.0419x    frame=  419 fps=1.2 q=30.0 size=   11558kB time=00:00:14.20 bitrate=6663.7kbits/s speed=0.0423x    frame=  420 fps=1.2 q=30.0 size=   11558kB time=00:00:14.25 bitrate=6644.1kbits/s speed=0.0422x    frame=  425 fps=1.2 q=29.0 size=   11558kB time=00:00:14.45 bitrate=6548.5kbits/s speed=0.0425x    frame=  426 fps=1.2 q=30.0 size=   11558kB time=00:00:14.50 bitrate=6529.5kbits/s speed=0.0425x    frame=  430 fps=1.3 q=29.0 size=   11558kB time=00:00:14.66 bitrate=6455.2kbits/s speed=0.0429x    frame=  431 fps=1.3 q=29.0 size=   11558kB time=00:00:14.70 bitrate=6437.2kbits/s speed=0.0428x    frame=  433 fps=1.3 q=29.0 size=   11558kB time=00:00:14.79 bitrate=6400.7kbits/s speed=0.0429x    frame=  437 fps=1.3 q=29.0 size=   11558kB time=00:00:14.95 bitrate=6329.6kbits/s speed=0.0432x    frame=  439 fps=1.2 q=29.0 size=   11558kB time=00:00:15.04 bitrate=6294.3kbits/s speed=0.0427x    frame=  441 fps=1.2 q=29.0 size=   11558kB time=00:00:15.12 bitrate=6259.7kbits/s speed=0.0429x    frame=  443 fps=1.3 q=29.0 size=   11558kB time=00:00:15.20 bitrate=6225.6kbits/s speed=0.043x    frame=  445 fps=1.3 q=29.0 size=   15530kB time=00:00:15.29 bitrate=8319.0kbits/s speed=0.043x    frame=  446 fps=1.2 q=29.0 size=   15530kB time=00:00:15.33 bitrate=8296.7kbits/s speed=0.0428x    frame=  448 fps=1.2 q=29.0 size=   15530kB time=00:00:15.41 bitrate=8251.5kbits/s speed=0.043x    frame=  449 fps=1.2 q=29.0 size=   15530kB time=00:00:15.45 bitrate=8229.7kbits/s speed=0.043x    frame=  451 fps=1.2 q=29.0 size=   15530kB time=00:00:15.54 bitrate=8185.2kbits/s speed=0.0431x    frame=  452 fps=1.2 q=29.0 size=   15530kB time=00:00:15.58 bitrate=8163.6kbits/s speed=0.0429x    frame=  453 fps=1.2 q=29.0 size=   15530kB time=00:00:15.62 bitrate=8141.7kbits/s speed=0.0429x    frame=  454 fps=1.2 q=29.0 size=   15530kB time=00:00:15.66 bitrate=8119.9kbits/s speed=0.0429x    frame=  455 fps=1.2 q=29.0 size=   15530kB time=00:00:15.70 bitrate=8098.7kbits/s speed=0.0429x    frame=  457 fps=1.2 q=29.0 size=   15530kB time=00:00:15.79 bitrate=8055.6kbits/s speed=0.0431x    frame=  459 fps=1.2 q=29.0 size=   15530kB time=00:00:15.87 bitrate=8013.5kbits/s speed=0.0429x    frame=  461 fps=1.2 q=29.0 size=   15530kB time=00:00:15.95 bitrate=7971.8kbits/s speed=0.043x    frame=  464 fps=1.2 q=28.0 size=   15530kB time=00:00:16.08 bitrate=7909.9kbits/s speed=0.043x    frame=  465 fps=1.2 q=28.0 size=   15530kB time=00:00:16.12 bitrate=7889.3kbits/s speed=0.043x    frame=  466 fps=1.2 q=28.0 size=   15530kB time=00:00:16.16 bitrate=7868.8kbits/s speed=0.043x    frame=  468 fps=1.2 q=28.0 size=   15530kB time=00:00:16.25 bitrate=7828.6kbits/s speed=0.043x    frame=  470 fps=1.2 q=29.0 size=   15530kB time=00:00:16.33 bitrate=7788.8kbits/s speed=0.0431x    frame=  471 fps=1.2 q=29.0 size=   15530kB time=00:00:16.37 bitrate=7768.8kbits/s speed=0.0429x    frame=  473 fps=1.2 q=29.0 size=   15530kB time=00:00:16.45 bitrate=7729.6kbits/s speed=0.043x    frame=  475 fps=1.2 q=29.0 size=   15530kB time=00:00:16.54 bitrate=7690.4kbits/s speed=0.0432x    frame=  476 fps=1.2 q=29.0 size=   15530kB time=00:00:16.58 bitrate=7671.4kbits/s speed=0.0429x    frame=  477 fps=1.2 q=29.0 size=   15530kB time=00:00:16.62 bitrate=7652.0kbits/s speed=0.0429x    frame=  479 fps=1.2 q=29.0 size=   15530kB time=00:00:16.70 bitrate=7614.0kbits/s speed=0.0431x    frame=  481 fps=1.2 q=29.0 size=   15530kB time=00:00:16.79 bitrate=7575.9kbits/s speed=0.0432x    frame=  482 fps=1.2 q=29.0 size=   15530kB time=00:00:16.83 bitrate=7557.5kbits/s speed=0.0429x    frame=  484 fps=1.2 q=29.0 size=   15530kB time=00:00:16.91 bitrate=7519.9kbits/s speed=0.043x    frame=  486 fps=1.2 q=29.0 size=   15530kB time=00:00:17.00 bitrate=7483.2kbits/s speed=0.0431x    frame=  488 fps=1.2 q=29.0 size=   15530kB time=00:00:17.08 bitrate=7446.9kbits/s speed=0.0431x    frame=  489 fps=1.2 q=29.0 size=   15530kB time=00:00:17.12 bitrate=7428.6kbits/s speed=0.043x    frame=  491 fps=1.2 q=29.0 size=   15530kB time=00:00:17.20 bitrate=7392.8kbits/s speed=0.0432x    frame=  494 fps=1.2 q=29.0 size=   15530kB time=00:00:17.33 bitrate=7339.5kbits/s speed=0.0429x    frame=  496 fps=1.2 q=29.0 size=   15530kB time=00:00:17.41 bitrate=7304.1kbits/s speed=0.043x    frame=  498 fps=1.2 q=29.0 size=   15530kB time=00:00:17.50 bitrate=7269.4kbits/s speed=0.0431x    frame=  500 fps=1.2 q=29.0 size=   15530kB time=00:00:17.58 bitrate=7235.1kbits/s speed=0.0431x    frame=  500 fps=1.1 q=-1.0 Lsize=   22084kB time=00:00:20.70 bitrate=8735.8kbits/s speed=0.045x    
video:22079kB audio:0kB subtitle:0kB other streams:0kB global headers:0kB muxing overhead: 0.021447%
bench: utime=1741.172s
bench: maxrss=2798008kB
[libx264 @ 0x46621c0] frame I:3     Avg QP:23.56  size:233040
[libx264 @ 0x46621c0] frame P:268   Avg QP:30.87  size: 57673
[libx264 @ 0x46621c0] frame B:229   Avg QP:30.90  size: 28177
[libx264 @ 0x46621c0] consecutive B-frames: 36.2%  7.6% 18.0% 17.6% 11.0%  9.6%  0.0%  0.0%  0.0%
[libx264 @ 0x46621c0] mb I  I16..4: 14.0% 78.8%  7.2%
[libx264 @ 0x46621c0] mb P  I16..4: 18.4% 22.8%  0.3%  P16..4: 28.9%  2.4%  1.8%  0.0%  0.0%    skip:25.4%
[libx264 @ 0x46621c0] mb B  I16..4:  1.0%  2.0%  0.1%  B16..8: 32.1%  3.0%  0.5%  direct: 1.1%  skip:60.2%  L0:43.1% L1:53.7% BI: 3.1%
[libx264 @ 0x46621c0] final ratefactor: 26.28
[libx264 @ 0x46621c0] 8x8 transform intra:56.0% inter:87.5%
[libx264 @ 0x46621c0] direct mvs  spatial:99.1% temporal:0.9%
[libx264 @ 0x46621c0] coded y,uvDC,uvAC intra: 15.3% 18.8% 1.4% inter: 5.3% 4.1% 0.1%
[libx264 @ 0x46621c0] i16 v,h,dc,p: 21% 25% 10% 44%
[libx264 @ 0x46621c0] i8 v,h,dc,ddl,ddr,vr,hd,vl,hu: 17% 14% 29%  5%  7%  7%  8%  5%  7%
[libx264 @ 0x46621c0] i4 v,h,dc,ddl,ddr,vr,hd,vl,hu: 14% 16%  7%  6% 13% 11% 15%  6% 11%
[libx264 @ 0x46621c0] i8c dc,h,v,p: 65% 21% 10%  4%
[libx264 @ 0x46621c0] Weighted P-Frames: Y:1.5% UV:1.1%
[libx264 @ 0x46621c0] ref P L0: 62.8% 16.1%  9.0%  3.1%  1.9%  1.5%  1.3%  0.8%  0.7%  0.6%  0.5%  0.5%  0.4%  0.4%  0.3%  0.2%
[libx264 @ 0x46621c0] ref B L0: 87.7%  5.9%  2.4%  1.0%  0.8%  0.5%  0.4%  0.3%  0.3%  0.2%  0.2%  0.1%  0.1%  0.1%  0.1%
[libx264 @ 0x46621c0] ref B L1: 98.3%  1.7%
[libx264 @ 0x46621c0] kb/s:8681.50
